<?xml version="1.0" encoding="iso-8859-1"?>
<!-- Uploaded to: SVG Repo, www.svgrepo.com, Generator: SVG Repo Mixer Tools -->
<svg version="1.1" id="Layer_1" xmlns="http://www.w3.org/2000/svg" xmlns:xlink="http://www.w3.org/1999/xlink"
	 viewBox="0 0 512 512" xml:space="preserve">
<path style="fill:#FFC61B;" d="M217.6,234.165H91.106c-8.315,0-15.059-6.742-15.059-15.059V92.612
	c0-8.317,6.743-15.059,15.059-15.059H217.6c8.315,0,15.059,6.742,15.059,15.059v126.494
	C232.659,227.423,225.915,234.165,217.6,234.165z M106.165,204.047h96.376v-96.376h-96.376V204.047z"/>
<path style="fill:#FFC61B;" d="M420.894,234.165H294.4c-8.315,0-15.059-6.742-15.059-15.059V92.612
	c0-8.317,6.743-15.059,15.059-15.059h126.494c8.315,0,15.059,6.742,15.059,15.059v126.494
	C435.953,227.423,429.21,234.165,420.894,234.165z M309.459,204.047h96.376v-96.376h-96.376V204.047z"/>
<g>
	<path style="fill:#FFC61B;" d="M217.6,434.447H91.106c-8.315,0-15.059-6.742-15.059-15.059V292.894
		c0-8.317,6.743-15.059,15.059-15.059H217.6c8.315,0,15.059,6.742,15.059,15.059v126.494
		C232.659,427.705,225.915,434.447,217.6,434.447z M106.165,404.329h96.376v-96.376h-96.376V404.329z"/>
	<path style="fill:#FFC61B;" d="M420.894,434.447H294.4c-8.315,0-15.059-6.742-15.059-15.059V292.894
		c0-8.317,6.743-15.059,15.059-15.059h126.494c8.315,0,15.059,6.742,15.059,15.059v63.247c0,8.317-6.743,15.059-15.059,15.059
		s-15.059-6.742-15.059-15.059v-48.188h-96.376v96.376h111.435c8.315,0,15.059,6.742,15.059,15.059S429.21,434.447,420.894,434.447z
		"/>
</g>
</svg>