<?xml version="1.0" encoding="UTF-8"?>
<svg version="1.1" viewBox="0 0 2048 2048" width="1280" height="1280" xmlns="http://www.w3.org/2000/svg">
<path transform="translate(997,127)" d="m0 0h53l26 3 25 5 19 5 26 9 27 12 20 11 17 11 18 13 13 11 10 9 5 4 6 7 12 12 9 11 10 13 14 21 12 21 11 23 8 21 7 22 6 26 4 28 1 13v42l-2 23-4 28-6 31-8 32-11 35-9 26-13 32-11 25-10 19-12 23-10 17-9 14-12 18-13 18-13 16-13 15-10 10-5 6-8 7-10 9-3 2 17 3 36 6 40 8 34 8 43 12 37 12 49 18 37 16 28 13 19 9 21 12 17 12 9 7 13 11 16 15 7 8 11 13 13 19 10 16 11 22 9 23 7 23 5 24 3 27 1 44-1 627-4 10-6 8-8 5-5 2-6 1h-1209l-11-4-9-8-5-9-2-14v-651l2-26 4-24 6-24 7-20 9-20 12-23 5-8 3 1 8 20 15 33 16 35 12 26 12 24 13 23 10 18 12 19 14 22 20 28 16 21 13 16 8 10 13 15 9 10 11 12 8 8 7 8 9 9 8 7 12 12 8 7 11 10 11 9 13 11 13 10 10 4 10 1 13-4 8-7 4-5 3-11v-8l-4-11-6-8-16-13-9-7-28-24-7-7-8-7-19-19-7-8-12-13-9-11-10-11-21-27-13-18-11-16-15-23-13-21-15-26-14-26-15-29-16-34-15-34-17-40-5-13v-5l16-13 14-10 19-12 27-14 32-15 36-15 40-15 46-15 44-12 42-10 49-9 33-5v-2l-4-3v-2l-4-2-28-28-9-11-12-14-14-19-16-24-11-18-12-21-15-29-14-31-12-30-12-35-9-31-7-29-6-32-4-30-2-33 1-31 4-30 5-24 8-27 11-28 14-28 12-19 11-16 13-16 9-10 14-15 3-1v-2l8-7 13-11 16-12 22-14 24-13 23-10 20-7 21-6 23-5 21-3zm-240 349v9l4 31 5 27 9 36 11 35 11 29 13 30 12 25 10 19 10 17 12 19 11 16 9 12 13 16 18 20 11 11 22 18 15 10 21 11 21 7 16 3h26l19-4 17-6 16-8 16-10 16-12 13-12 8-7v-2l4-2 7-8 11-12 13-17 13-18 20-32 13-24 8-16 12-25 11-27 12-34 10-34 8-35 5-32 2-16v-8l-13 2-41 8-49 8-41 5-49 4-37 2h-78l-51-3-42-4-51-7-40-7-39-8zm238 467-41 2-45 4-44 6-33 6-37 8-32 8-28 8-2 1 1 5 8 16 14 27 10 17 9 15 12 19 14 21 12 17 9 12 13 17 13 16 12 14 9 11 16 17 11 12 26 26 8 7 4 4h2v2l8 7 14 12 17 14 14 11 16 12 17 12 24 16 21 13 17 10 24 13 17 9 24 11 28 12 38 14 25 8 37 10 8 2h6v-15l4-9 4-6 7-6 10-4h14l10 4 8 7 5 8 2 7 1 422 5 1h227l3-1v-629l-3-24-5-21-6-18-9-20-10-18-10-14-9-11-14-15-10-9-13-10-17-11-25-13-33-15-41-17-30-11-30-10-30-9-56-14-40-8-45-7-48-5-51-3z"/>
</svg>
